ffmpeg started on 2023-01-29 at 03:52:19
Report written to "D:/java/GitHub/pornMagnetSpringBoot/jiuse911Modeul/Logs/2023-01-29_03-45-42-761_ffreport.log"
Command line:
"D:\\java\\GitHub\\pornMagnetSpringBoot\\ffmpeg.exe" -loglevel warning -i "concat:000.ts|001.ts|002.ts|003.ts|004.ts|005.ts|006.ts|007.ts|008.ts|009.ts|010.ts|011.ts|012.ts|013.ts|014.ts|015.ts|016.ts|017.ts|018.ts|019.ts|020.ts|021.ts|022.ts|023.ts|024.ts|025.ts|026.ts|027.ts|028.ts|029.ts|030.ts|031.ts|032.ts|033.ts|034.ts|035.ts|036.ts|037.ts|038.ts|039.ts|040.ts|041.ts|042.ts|043.ts|044.ts|045.ts|046.ts|047.ts|048.ts|049.ts|050.ts|051.ts|052.ts|053.ts|054.ts|055.ts|056.ts|057.ts|058.ts|059.ts|060.ts|061.ts|062.ts|063.ts|064.ts|065.ts|066.ts|067.ts|068.ts|069.ts|070.ts|071.ts|072.ts|073.ts|074.ts|075.ts|076.ts|077.ts|078.ts|079.ts|080.ts|081.ts|082.ts|083.ts|084.ts|085.ts|086.ts|087.ts|088.ts|089.ts|090.ts|091.ts|092.ts|093.ts|094.ts|095.ts|096.ts|097.ts|098.ts|099.ts|100.ts|101.ts|102.ts|103.ts|104.ts|105.ts|106.ts|107.ts|108.ts|109.ts|110.ts|111.ts|112.ts|113.ts|114.ts|115.ts|116.ts|117.ts|118.ts|119.ts|120.ts|121.ts|122.ts|123.ts|124.ts|125.ts|126.ts|127.ts|128.ts|129.ts|130.ts|131.ts|132.ts|133.ts|134.ts|135.ts|136.ts|137.ts|138.ts|139.ts|140.ts|141.ts|142.ts|143.ts|144.ts|145.ts|146.ts|147.ts|148.ts|149.ts|150.ts|151.ts|152.ts|153.ts|154.ts|155.ts|156.ts|157.ts|158.ts|159.ts|160.ts|161.ts|162.ts|163.ts|164.ts|165.ts|166.ts|167.ts|168.ts|169.ts|170.ts|171.ts|172.ts|173.ts|174.ts|175.ts|176.ts|177.ts|178.ts|179.ts|180.ts|181.ts|182.ts|183.ts|184.ts|185.ts|186.ts|187.ts|188.ts|189.ts|190.ts|191.ts|192.ts|193.ts|194.ts|195.ts|196.ts|197.ts|198.ts|199.ts|200.ts|201.ts|202.ts|203.ts|204.ts|205.ts|206.ts|207.ts|208.ts|209.ts|210.ts|211.ts|212.ts|213.ts|214.ts|215.ts|216.ts|217.ts|218.ts|219.ts|220.ts|221.ts|222.ts|223.ts|224.ts|225.ts|226.ts|227.ts|228.ts|229.ts|230.ts|231.ts|232.ts|233.ts|234.ts|235.ts|236.ts|237.ts|238.ts|239.ts|240.ts|241.ts|242.ts|243.ts|244.ts|245.ts|246.ts|247.ts|248.ts|249.ts|250.ts|251.ts|252.ts|253.ts|254.ts|255.ts|256.ts|257.ts|258.ts|259.ts|260.ts|261.ts|262.ts|263.ts|264.ts|265.ts|266.ts|267.ts|268.ts|269.ts|270.ts|271.ts|272.ts|273.ts|274.ts|275.ts|276.ts|277.ts|278.ts|279.ts|280.ts|281.ts|282.ts|283.ts|284.ts|285.ts|286.ts|287.ts|288.ts|289.ts|290.ts|291.ts|292.ts|293.ts|294.ts|295.ts|296.ts|297.ts|298.ts|299.ts|300.ts|301.ts|302.ts|303.ts|304.ts|305.ts|306.ts|307.ts|308.ts|309.ts|310.ts|311.ts|312.ts|313.ts|314.ts|315.ts|316.ts|317.ts|318.ts|319.ts|320.ts|321.ts|322.ts|323.ts|324.ts|325.ts|326.ts|327.ts|328.ts|329.ts|330.ts|331.ts|332.ts|333.ts|334.ts|335.ts|336.ts|337.ts|338.ts|339.ts|340.ts|341.ts|342.ts|343.ts|344.ts|345.ts|346.ts|347.ts|" -map "0:v?" -map "0:a?" -map "0:s?" -metadata "date=2023-01-29T03:52:19.1502176+08:00" -metadata "encoding_tool=" -metadata "title=" -metadata "copyright=" -metadata "comment=" -metadata:s:a:0 "handler_name=" -metadata:s:a:0 "handler=" -c copy -y -bsf:a aac_adtstoasc "D:\\java\\GitHub\\pornMagnetSpringBoot\\Downloads\\\xa3\xa8\xcf\xc2\xc3\xe6\xbf\xb4\xb4\xcb\xd3\xf9\xbd\xe3\xcf\xc9\xc5\xae\xb5\xc4\xc1\xaa\xcf\xb5\xb7\xbd\xca\xbd\xba\xcd\xcd\xea\xd5\xfb\xb0\xe6\xa3\xa991\xd7\xee\xc7\xbf\xd3\xf9\xbd\xe3\xd0\xcd\xcf\xc9\xc5\xae\xa3\xac\xbe\xde\xc8\xe9\xd1\xd5\xd6\xb5\xb1\xac.mp4"
ffmpeg version N-94813-g85386c36e3-ffmpeg-for-N_m3u8DL-CLI Copyright (c) 2000-2019 the FFmpeg developers
  built with gcc 8.2.0 (GCC)
  libavutil      56. 35.100 / 56. 35.100
  libavcodec     58. 56.101 / 58. 56.101
  libavformat    58. 32.104 / 58. 32.104
  libavfilter     7. 58.102 /  7. 58.102
  libavresample   4.  0.  0 /  4.  0.  0
  libswresample   3.  6.100 /  3.  6.100
Input #0, mpegts, from 'concat:000.ts|001.ts|002.ts|003.ts|004.ts|005.ts|006.ts|007.ts|008.ts|009.ts|010.ts|011.ts|012.ts|013.ts|014.ts|015.ts|016.ts|017.ts|018.ts|019.ts|020.ts|021.ts|022.ts|023.ts|024.ts|025.ts|026.ts|027.ts|028.ts|029.ts|030.ts|031.ts|032.ts|033.ts|034.ts|035.ts|036.ts|037.ts|038.ts|039.ts|040.ts|041.ts|042.ts|043.ts|044.ts|045.ts|046.ts|047.ts|048.ts|049.ts|050.ts|051.ts|052.ts|053.ts|054.ts|055.ts|056.ts|057.ts|058.ts|059.ts|060.ts|061.ts|062.ts|063.ts|064.ts|065.ts|066.ts|067.ts|068.ts|069.ts|070.ts|071.ts|072.ts|073.ts|074.ts|075.ts|076.ts|077.ts|078.ts|079.ts|080.ts|081.ts|082.ts|083.ts|084.ts|085.ts|086.ts|087.ts|088.ts|089.ts|090.ts|091.ts|092.ts|093.ts|094.ts|095.ts|096.ts|097.ts|098.ts|099.ts|100.ts|101.ts|102.ts|103.ts|104.ts|105.ts|106.ts|107.ts|108.ts|109.ts|110.ts|111.ts|112.ts|113.ts|114.ts|115.ts|116.ts|117.ts|118.ts|119.ts|120.ts|121.ts|122.ts|123.ts|124.ts|125.ts|126.ts|127.ts|128.ts|129.ts|130.ts|131.ts|132.ts|133.ts|134.ts|135.ts|136.ts|137.ts|138.ts|139.ts|140.ts|141.t  Duration: 00:58:00.21, start: 1.443444, bitrate: 492 kb/s
  Program 1 
    Metadata:
      service_name    : Service01
      service_provider: FFmpeg
    Stream #0:0[0x100]: Video: h264 ([27][0][0][0] / 0x001B), yuv420p(progressive), 600x362 [SAR 1991:2000 DAR 33:20], 30 fps, 30 tbr, 90k tbn, 60 tbc
    Stream #0:1[0x101](und): Audio: aac ([15][0][0][0] / 0x000F), 44100 Hz, stereo, fltp, 4 kb/s
Output #0, mp4, to 'D:\java\GitHub\pornMagnetSpringBoot\Downloads\（下面看此御姐仙女的联系方式和完整版）91最强御姐型仙女，巨乳颜值爆.mp4':
  Metadata:
    date            : 2023-01-29T03:52:19.1502176+08:00
    encoder         : Lavf58.32.104
    Stream #0:0: Video: h264 (avc1 / 0x31637661), yuv420p(progressive), 600x362 [SAR 1991:2000 DAR 33:20], q=2-31, 30 fps, 30 tbr, 90k tbn, 90k tbc
    Stream #0:1(und): Audio: aac (mp4a / 0x6134706D), 44100 Hz, stereo, fltp, 4 kb/s
Stream mapping:
  Stream #0:0 -> #0:0 (copy)
  Stream #0:1 -> #0:1 (copy)
Press [q] to stop, [?] for help
frame=52473 fps=0.0 q=-1.0 size=   89856kB time=00:29:09.02 bitrate= 420.9kbits/s speed=3.49e+03x    frame=104405 fps=0.0 q=-1.0 Lsize=  193725kB time=00:58:00.18 bitrate= 456.0kbits/s speed=3.57e+03x    
video:135658kB audio:54356kB subtitle:0kB other streams:0kB global headers:0kB muxing overhead: 1.952857%
